<?xml version="1.0" encoding="utf-8"?>
<!-- Generator: Adobe Illustrator 19.0.0, SVG Export Plug-In . SVG Version: 6.00 Build 0)  -->
<svg version="1.1" id="Layer_1" xmlns="http://www.w3.org/2000/svg" xmlns:xlink="http://www.w3.org/1999/xlink" x="0px" y="0px"
	 viewBox="0 0 64 64" style="enable-background:new 0 0 64 64;" xml:space="preserve">
<style type="text/css">
	.st0{fill:#E9EAEB;}
	.st1{fill:#FFFFFF;stroke:#2B5183;stroke-width:2;stroke-miterlimit:10;}
	.st2{fill:#E9EAEB;stroke:#2B5183;stroke-width:2;stroke-miterlimit:10;}
	.st3{fill:#FFFFFF;}
	.st4{fill:none;stroke:#2B5183;stroke-width:2;stroke-miterlimit:10;}
	.st5{fill:#A8D2F0;stroke:#2B5183;stroke-width:2;stroke-miterlimit:10;}
</style>
<g>
	<!--<circle class="st0" cx="30.2" cy="32" r="28"/>-->
	<path class="st1" d="M41.9,24l-0.2-0.2c-1.1-1.2-1.2-2.9-0.3-3.8l4.1-3.9c1.5-1.4,3.6-1.6,4.8-0.4l0.2,0.2c1.1,1.2,0.8,3.3-0.7,4.7
		l-4.1,3.9C44.7,25.3,43,25.1,41.9,24z"/>
	<path class="st1" d="M20.9,29.1l-5.4-2L8.3,49.9c0.4,0.3,0.8,0.7,1.2,1c1.4,1.2,2.6,2.6,3.7,4.1l7,1c1.5-1.7,2.7-2.8,4-4
		c10.2,0.8,15-6.8,16-8C41.2,42.8,20.9,29.1,20.9,29.1z"/>
	<path class="st2" d="M41.2,45l-18,0c-2.2,0-4-1.8-4-4c0-8.4,0-27.6,0-36c0-2.2,1.8-4,4-4l18,0c2.2,0,4,1.8,4,4c0,8.4,0,27.6,0,36
		C45.2,43.2,43.4,45,41.2,45z"/>
	<rect x="19.2" y="7" class="st1" width="26" height="30"/>
	<path class="st1" d="M44.7,44.1l-0.2-0.2c-1.1-1-1.5-2.4-0.9-3.1l2.6-3c0.9-1.1,2.6-1.2,3.8-0.2l0.2,0.2c1.1,1,1.3,2.7,0.3,3.8
		l-2.6,3C47.2,45.3,45.8,45.1,44.7,44.1z"/>
	<path class="st3" d="M19.8,29c1-3.1,1.5-5.3,1.8-9c0.2-2.1-0.7-3.9-1.6-5.2c-1-1.3-3.3-1-3.7,0.5c-2.1,6.6-2.4,8.4-3.7,11.7
		c-1.4,3.7-0.6,8.9-1.3,10.4c-0.1,0.3-4.9,6.4-6.2,8.3c1.4,0.7,4.3,2,5.5,3c1.4,1.2,2.8,2.7,3.9,4.2l1.1,0.1l6.3-6.5
		C24.5,38.6,22.2,32.1,19.8,29z"/>
	<path class="st4" d="M21.8,46.4c2.7-7.8,0.5-14.3-2-17.4c1-3.1,1.5-5.3,1.8-9c0.2-2.1-0.7-3.9-1.6-5.2c-1-1.3-3.3-1-3.7,0.5
		c-2.1,6.6-2.4,8.4-3.7,11.7c-1.4,3.7-0.6,8.9-1.3,10.4c-0.1,0.3-4.9,6.4-6.2,8.3c1.4,0.7,4.3,2,5.5,3c1.4,1.2,2.8,2.7,3.9,4.2
		l1.1,0.1"/>
	<rect x="8" y="40.9" transform="matrix(0.7074 -0.7068 0.7068 0.7074 -33.1363 23.5065)" class="st5" width="7.7" height="21.8"/>
	<path class="st1" d="M44.7,37.1l-0.2-0.2c-1.1-1-1.6-2.4-0.9-3.1l2.7-3.1c1-1.1,2.7-1.2,3.8-0.2l0.2,0.2c1.1,1,1.3,2.7,0.3,3.8
		l-2.7,3.1C47.3,38.3,45.8,38.1,44.7,37.1z"/>
	<path class="st1" d="M44.7,30.3l-0.2-0.2c-1.1-1-1.6-2.4-0.9-3.1l2.7-3.1c1-1.1,2.7-1.2,3.8-0.2l0.2,0.2c1.1,1,1.3,2.7,0.3,3.8
		l-2.7,3.1C47.3,31.5,45.8,31.3,44.7,30.3z"/>
	<line class="st4" x1="29.2" y1="41" x2="35.2" y2="41"/>
</g>
</svg>
