<?xml version="1.0" encoding="utf-8"?>
<!-- Generator: Adobe Illustrator 19.0.0, SVG Export Plug-In . SVG Version: 6.00 Build 0)  -->
<svg version="1.1" id="Layer_1" xmlns="http://www.w3.org/2000/svg" xmlns:xlink="http://www.w3.org/1999/xlink" x="0px" y="0px"
	 viewBox="0 0 64 64" style="enable-background:new 0 0 64 64;" xml:space="preserve">
<style type="text/css">
	.st0{fill:#E9EAEB;}
	.st1{fill:#FFFFFF;}
	.st2{fill:none;stroke:#2B5183;stroke-width:2;stroke-miterlimit:10;}
	.st3{fill:#A8D2F0;}
	.st4{fill:none;stroke:#BDC0C4;stroke-width:2;stroke-miterlimit:10;}
</style>
<g>
	<circle class="st0" cx="38" cy="26" r="26"/>
	<path class="st1" d="M28,10h12l16.6,16.6c0.8,0.8,0.8,2,0,2.8L29.4,56.6c-0.8,0.8-2,0.8-2.8,0L5.4,35.4c-0.8-0.8-0.8-2,0-2.8L28,10
		z"/>
	<line class="st2" x1="26" y1="49" x2="9" y2="49"/>
	<line class="st2" x1="20" y1="24" x2="0" y2="24"/>
	<g>
		<polygon class="st3" points="28,11 34,17 40,11 		"/>
		<path class="st2" d="M11,27l-5.6,5.6c-0.8,0.8-0.8,2,0,2.8L19,49"/>
		<path class="st2" d="M22,52l4.6,4.6c0.8,0.8,2,0.8,2.8,0l27.2-27.2c0.8-0.8,0.8-2,0-2.8L40,10H28L14,24"/>
		<polyline class="st2" points="30,13 34,17 38,13 		"/>
	</g>
	<g>
		<line class="st4" x1="28" y1="23" x2="39" y2="34"/>
		<line class="st4" x1="25" y1="26" x2="36" y2="37"/>
		<line class="st4" x1="22" y1="29" x2="30" y2="37"/>
	</g>
	<line class="st4" x1="12" y1="4" x2="32" y2="4"/>
	<line class="st4" x1="44" y1="50" x2="56" y2="50"/>
	<line class="st2" x1="18" y1="12" x2="8" y2="12"/>
	<line class="st2" x1="6" y1="12" x2="4" y2="12"/>
</g>
</svg>
