<?xml version="1.0" encoding="utf-8"?>
<!-- Generator: Adobe Illustrator 19.0.0, SVG Export Plug-In . SVG Version: 6.00 Build 0)  -->
<svg version="1.1" id="Layer_1" xmlns="http://www.w3.org/2000/svg" xmlns:xlink="http://www.w3.org/1999/xlink" x="0px" y="0px"
	 viewBox="0 0 64 64" style="enable-background:new 0 0 64 64;" xml:space="preserve">
<style type="text/css">
	.st0{fill:#E9EAEB;}
	.st1{fill:#FFFFFF;}
	.st2{fill:#A8D2F0;}
	.st3{fill:none;stroke:#2B5183;stroke-width:2;stroke-miterlimit:10;}
	.st4{fill:none;stroke:#2B5183;stroke-width:2;stroke-linejoin:round;stroke-miterlimit:10;}
	.st5{fill:#A8D2F0;stroke:#2B5183;stroke-width:2;stroke-linejoin:round;stroke-miterlimit:10;}
	.st6{fill:#FFFFFF;stroke:#2B5183;stroke-width:2;stroke-linejoin:round;stroke-miterlimit:10;}
</style>
<g>
	<circle class="st0" cx="22.5" cy="22.5" r="22.5"/>
	<path class="st1" d="M24,12h24l8,8v35c0,1.1-0.9,2-2,2H24c-1.1,0-2-0.9-2-2V14C22,12.9,22.9,12,24,12z"/>
	<polygon class="st2" points="47,12 47,21 56,21 	"/>
	<path class="st3" d="M22,14c0-1.1,0.9-2,2-2h24l8,8v35c0,1.1-0.9,2-2,2H24c-1.1,0-2-0.9-2-2V14z"/>
	<g>
		<polyline class="st3" points="53,21 47,21 47,15 		"/>
	</g>
	<g>
		<path class="st4" d="M10.5,18.5l-1.6-1.6c-0.8-0.8-2-0.8-2.8,0l-0.2,0.2c-0.8,0.8-0.8,2,0,2.8l1.6,1.6"/>
		<polygon class="st5" points="7,22 33,48 41,52 37,44 11,18 		"/>
		<line class="st6" x1="37" y1="44" x2="33" y2="48"/>
		<line class="st4" x1="14" y1="21" x2="7" y2="28"/>
		<line class="st4" x1="4" y1="25" x2="14" y2="35"/>
	</g>
</g>
</svg>
