<?xml version="1.0" encoding="UTF-8" standalone="no"?>
<!-- Created with Inkscape (http://www.inkscape.org/) -->

<svg
   xmlns:dc="http://purl.org/dc/elements/1.1/"
   xmlns:cc="http://creativecommons.org/ns#"
   xmlns:rdf="http://www.w3.org/1999/02/22-rdf-syntax-ns#"
   xmlns:svg="http://www.w3.org/2000/svg"
   xmlns="http://www.w3.org/2000/svg"
   xmlns:sodipodi="http://sodipodi.sourceforge.net/DTD/sodipodi-0.dtd"
   xmlns:inkscape="http://www.inkscape.org/namespaces/inkscape"
   width="600"
   height="600"
   viewBox="0 0 600.00005 600.00002"
   id="svg2"
   version="1.1"
   inkscape:version="0.91 r13725"
   sodipodi:docname="safe-white.svg">
  <defs
     id="defs4" />
  <sodipodi:namedview
     id="base"
     pagecolor="#5fffff"
     bordercolor="#666666"
     borderopacity="1.0"
     inkscape:pageopacity="0"
     inkscape:pageshadow="2"
     inkscape:zoom="0.7"
     inkscape:cx="-98.129657"
     inkscape:cy="248.16442"
     inkscape:document-units="px"
     inkscape:current-layer="layer1"
     showgrid="false"
     inkscape:window-width="1920"
     inkscape:window-height="1017"
     inkscape:window-x="-8"
     inkscape:window-y="-8"
     inkscape:window-maximized="1"
     units="px"
     fit-margin-top="20"
     fit-margin-left="20"
     fit-margin-right="20"
     fit-margin-bottom="20"
     width="575mm" />
  <metadata
     id="metadata7">
    <rdf:RDF>
      <cc:Work
         rdf:about="">
        <dc:format>image/svg+xml</dc:format>
        <dc:type
           rdf:resource="http://purl.org/dc/dcmitype/StillImage" />
        <dc:title></dc:title>
      </cc:Work>
    </rdf:RDF>
  </metadata>
  <g
     inkscape:label="Layer 1"
     inkscape:groupmode="layer"
     id="layer1"
     transform="translate(-132.75186,-142.69433)">
    <path
       style="fill:#ffffff;fill-opacity:1;stroke:none;stroke-width:1;stroke-miterlimit:4;stroke-dasharray:none;stroke-opacity:1"
       d="m 250.83003,248.58544 c -16.36654,0 -29.54297,13.17642 -29.54297,29.54296 l 0,305.27344 c 0,16.36654 13.17643,29.54102 29.54297,29.54102 l 363.84375,0 c 16.36653,0 29.54296,-13.17448 29.54296,-29.54102 l 0,-305.27344 c 0,-16.36654 -13.17644,-29.54296 -29.54296,-29.54296 l -363.84375,0 z m 46.29296,46.35937 271.25782,0 c 12.20181,0 22.02539,9.82358 22.02539,22.02539 l 0,227.58984 c 0,12.20182 -9.82358,22.02541 -22.02539,22.02539 l -271.25782,0 c -12.20181,0 -22.02539,-9.82357 -22.02539,-22.02539 l 0,-227.58984 c 0,-12.20181 9.82358,-22.02539 22.02539,-22.02539 z m 299.91407,14.3125 17.14257,0 0,58.57031 -17.14257,0 0,-58.57031 z m 0,184.44531 17.14257,0 0,58.57031 -17.14257,0 0,-58.57031 z"
       id="rect3340"
       inkscape:connector-curvature="0" />
    <rect
       style="fill:#ffffff;fill-opacity:1;stroke:none;stroke-width:1;stroke-miterlimit:4;stroke-dasharray:none;stroke-opacity:1"
       id="rect3342"
       width="58.571434"
       height="17.142857"
       x="275.25189"
       y="619.6604"
       ry="0" />
    <rect
       style="fill:#ffffff;fill-opacity:1;stroke:none;stroke-width:1;stroke-miterlimit:4;stroke-dasharray:none;stroke-opacity:1"
       id="rect3342-7"
       width="58.571434"
       height="17.142857"
       x="531.68054"
       y="619.6604"
       ry="0" />
    <path
       style="fill:#ffffff;fill-opacity:1;stroke:none;stroke-width:1;stroke-miterlimit:4;stroke-dasharray:none;stroke-opacity:1"
       d="m 311.22456,309.0674 c -10.93309,0 -19.73438,8.80128 -19.73438,19.73437 l 0,203.92578 c 0,10.93309 8.80129,19.73438 19.73438,19.73438 l 243.05468,0 c 10.93309,0 19.73438,-8.80129 19.73438,-19.73438 l 0,-203.92578 c 0,-10.93309 -8.80129,-19.73437 -19.73438,-19.73437 l -243.05468,0 z M 432.7519,330.05177 A 100.71429,100.71429 0 0 1 533.46674,430.76466 100.71429,100.71429 0 0 1 432.7519,531.47951 100.71429,100.71429 0 0 1 332.03706,430.76466 100.71429,100.71429 0 0 1 432.7519,330.05177 Z"
       id="rect3340-8-0"
       inkscape:connector-curvature="0" />
    <circle
       style="fill:none;fill-opacity:1;stroke:none;stroke-width:1;stroke-miterlimit:4;stroke-dasharray:none;stroke-opacity:1"
       id="path3398-7"
       cx="-430.76434"
       cy="432.75043"
       r="47.103832"
       transform="matrix(0,-1,1,0,0,0)" />
    <circle
       style="fill:#ffffff;fill-opacity:1;stroke:none;stroke-width:1;stroke-miterlimit:4;stroke-dasharray:none;stroke-opacity:1"
       id="path3415-0"
       cx="-46.684452"
       cy="562.50854"
       r="9.1353321"
       transform="matrix(0.70710678,-0.70710678,0.70710678,0.70710678,0,0)" />
    <circle
       style="fill:#ffffff;fill-opacity:1;stroke:none;stroke-width:1;stroke-miterlimit:4;stroke-dasharray:none;stroke-opacity:1"
       id="path3415-4"
       cx="-430.76434"
       cy="500.758"
       r="9.1353321"
       transform="matrix(0,-1,1,0,0,0)" />
    <circle
       style="fill:#ffffff;fill-opacity:1;stroke:none;stroke-width:1;stroke-miterlimit:4;stroke-dasharray:none;stroke-opacity:1"
       id="path3415-0-6"
       cx="-478.85471"
       cy="384.66248"
       r="9.1353321"
       transform="matrix(0,-1,1,0,0,0)" />
    <circle
       style="fill:#ffffff;fill-opacity:1;stroke:none;stroke-width:1;stroke-miterlimit:4;stroke-dasharray:none;stroke-opacity:1"
       id="path3415-4-7"
       cx="-610.59869"
       cy="69.41127"
       r="9.1353321"
       transform="matrix(-0.70710678,-0.70710678,0.70710678,-0.70710678,0,0)" />
    <circle
       style="fill:#ffffff;fill-opacity:1;stroke:none;stroke-width:1;stroke-miterlimit:4;stroke-dasharray:none;stroke-opacity:1"
       id="path3415-0-3"
       cx="-658.68903"
       cy="-46.684269"
       r="9.1353321"
       transform="matrix(-0.70710678,-0.70710678,0.70710678,-0.70710678,0,0)" />
    <circle
       style="fill:#ffffff;fill-opacity:1;stroke:none;stroke-width:1;stroke-miterlimit:4;stroke-dasharray:none;stroke-opacity:1"
       id="path3415-4-4"
       cx="-432.75262"
       cy="-362.75897"
       r="9.1353321"
       transform="scale(-1,-1)" />
    <circle
       style="fill:#ffffff;fill-opacity:1;stroke:none;stroke-width:1;stroke-miterlimit:4;stroke-dasharray:none;stroke-opacity:1"
       id="path3398-7-7"
       cx="-1.4058522"
       cy="-610.60077"
       r="37.103832"
       transform="matrix(-0.70710678,0.70710678,-0.70710678,-0.70710678,0,0)" />
    <circle
       style="fill:#ffffff;fill-opacity:1;stroke:none;stroke-width:1;stroke-miterlimit:4;stroke-dasharray:none;stroke-opacity:1"
       id="path3415-0-35"
       cx="-480.8429"
       cy="-478.85452"
       r="9.1353321"
       transform="scale(-1,-1)" />
    <circle
       style="fill:#ffffff;fill-opacity:1;stroke:none;stroke-width:1;stroke-miterlimit:4;stroke-dasharray:none;stroke-opacity:1"
       id="path3415-4-9"
       cx="-1.4058522"
       cy="-542.59326"
       r="9.1353321"
       transform="matrix(-0.70710678,0.70710678,-0.70710678,-0.70710678,0,0)" />
  </g>
</svg>
