<?xml version="1.0" encoding="utf-8"?>
<!-- Generator: Adobe Illustrator 19.0.0, SVG Export Plug-In . SVG Version: 6.00 Build 0)  -->
<svg version="1.1" id="Layer_1" xmlns="http://www.w3.org/2000/svg" xmlns:xlink="http://www.w3.org/1999/xlink" x="0px" y="0px"
	 viewBox="0 0 64 58" style="enable-background:new 0 0 64 58;" xml:space="preserve">
<style type="text/css">
	.st0{fill:#E9EAEB;}
	.st1{fill:#FFFFFF;}
	.st2{fill:none;stroke:#2B5183;stroke-width:2;stroke-miterlimit:10;}
	.st3{fill:#FFFFFF;stroke:#2B5183;stroke-width:2;stroke-miterlimit:10;}
	.st4{fill:#A8D2F0;stroke:#2B5183;stroke-width:2;stroke-miterlimit:10;}
</style>
<g>
	<circle class="st0" cx="31.4" cy="29" r="29"/>
	<path class="st1" d="M60,7.1H7c-1.7,0-3,1.3-3,3v35c0,1.7,1.3,3,3,3h53c1.7,0,3-1.3,3-3v-35C63,8.4,61.7,7.1,60,7.1z"/>
	<line class="st2" x1="59" y1="11.1" x2="8" y2="11.1"/>
	<line class="st2" x1="58" y1="41.1" x2="58" y2="14.1"/>
	<line class="st2" x1="8" y1="44.1" x2="59" y2="44.1"/>
	<line class="st2" x1="9" y1="27.1" x2="9" y2="41.1"/>
	<line class="st2" x1="9" y1="14.1" x2="9" y2="16.1"/>
	<polyline class="st2" points="10,51.1 11.1,52.1 19,52.1 20,51.1 	"/>
	<polyline class="st2" points="47,51.1 48.1,52.1 56,52.1 57,51.1 	"/>
	<path class="st2" d="M13,20.1v4H2c-0.6,0-1-0.4-1-1v-5c0-0.6,0.4-1,1-1h12"/>
	<path class="st3" d="M13,34.1v4H2c-0.6,0-1-0.4-1-1v-5c0-0.6,0.4-1,1-1h12"/>
	<rect x="24" y="19.1" class="st4" width="20" height="5"/>
	<line class="st2" x1="26" y1="28.1" x2="30" y2="28.1"/>
	<line class="st2" x1="32" y1="28.1" x2="36" y2="28.1"/>
	<line class="st2" x1="38" y1="28.1" x2="42" y2="28.1"/>
	<line class="st2" x1="26" y1="32.1" x2="30" y2="32.1"/>
	<line class="st2" x1="32" y1="32.1" x2="36" y2="32.1"/>
	<line class="st2" x1="38" y1="32.1" x2="42" y2="32.1"/>
	<line class="st2" x1="26" y1="36.1" x2="30" y2="36.1"/>
	<line class="st2" x1="32" y1="36.1" x2="36" y2="36.1"/>
	<line class="st2" x1="38" y1="36.1" x2="42" y2="36.1"/>
	<path class="st2" d="M4,38.1v7c0,1.7,1.3,3,3,3h53c1.7,0,3-1.3,3-3v-35c0-1.7-1.3-3-3-3H7c-1.7,0-3,1.3-3,3v7"/>
	<line class="st2" x1="4" y1="24.1" x2="4" y2="31.1"/>
</g>
</svg>
