<?xml version="1.0" encoding="utf-8"?>
<!-- Generator: Adobe Illustrator 19.0.0, SVG Export Plug-In . SVG Version: 6.00 Build 0)  -->
<svg version="1.1" id="Layer_1" xmlns="http://www.w3.org/2000/svg" xmlns:xlink="http://www.w3.org/1999/xlink" x="0px" y="0px"
	 viewBox="0 0 64 64" style="enable-background:new 0 0 64 64;" xml:space="preserve">
<style type="text/css">
	.st0{fill:#FFFFFF;stroke:#2B5183;stroke-width:2;stroke-miterlimit:10;}
	.st1{fill:none;stroke:#BDC0C4;stroke-width:2;stroke-miterlimit:10;}
	.st2{fill:none;stroke:#2B5183;stroke-width:2;stroke-miterlimit:10;}
	.st3{fill:#A8D2F0;stroke:#2B5183;stroke-width:2;stroke-miterlimit:10;}
</style>
<g>
	<path class="st0" d="M29,6h14.1c0.6,4,3.9,6.6,7.9,7.2c0,7.5,0,16.2,0,20.2c0,10.8-19.2,20.1-22,20.1c-2.8,0-22-9.3-22-20.1
		c0-3.9,0-12.6,0-20.2c4-0.6,7.3-3.2,7.9-7.2H29z"/>
	<!--<path class="st1" d="M57,24v9.3c0,6.8-4.4,13.3-12.8,19.2"/>-->
	<!--<line class="st1" x1="36" y1="1" x2="44" y2="1"/>
	<line class="st1" x1="14" y1="1" x2="22" y2="1"/>-->
	<!--<path class="st1" d="M13.8,52.6C5.4,46.7,1,40.1,1,33.3V24"/>-->
	<path class="st2" d="M42.7,28.4c0,8.1-6.5,14.6-14.6,14.6c-8.1,0-14.6-6.5-14.6-14.6c0-8.1,6.5-14.6,14.6-14.6c1.8,0,3.6,0.3,5.2,1
		"/>
	<polygon class="st3" points="42.2,13.9 29,27 23.5,21.6 19.1,26 29,35.8 46.6,18.3 	"/>
	<!--<line class="st1" x1="57" y1="12" x2="57" y2="14"/>
	<line class="st1" x1="57" y1="16" x2="57" y2="18"/>
	<line class="st1" x1="57" y1="20" x2="57" y2="22"/>
	<line class="st1" x1="1" y1="12" x2="1" y2="14"/>
	<line class="st1" x1="1" y1="16" x2="1" y2="18"/>
	<line class="st1" x1="1" y1="20" x2="1" y2="22"/>
	<line class="st1" x1="28" y1="1" x2="30" y2="1"/>
	<line class="st1" x1="24" y1="1" x2="26" y2="1"/>
	<line class="st1" x1="32" y1="1" x2="34" y2="1"/>-->
</g>
</svg>
