<?xml version="1.0" encoding="utf-8"?>
<!-- Generator: Adobe Illustrator 19.0.0, SVG Export Plug-In . SVG Version: 6.00 Build 0)  -->
<svg version="1.1" id="Layer_1" xmlns="http://www.w3.org/2000/svg" xmlns:xlink="http://www.w3.org/1999/xlink" x="0px" y="0px"
	 viewBox="0 0 64 64" style="enable-background:new 0 0 64 64;" xml:space="preserve">
<style type="text/css">
	.st0{fill:#E9EAEB;}
	.st1{fill:#FFFFFF;stroke:#2B5183;stroke-width:2;stroke-miterlimit:10;}
	.st2{fill:#A8D2F0;stroke:#2B5183;stroke-width:2;stroke-miterlimit:10;}
	.st3{fill:none;stroke:#2B5183;stroke-width:2;stroke-miterlimit:10;}
	.st4{fill:none;stroke:#BDC0C4;stroke-width:2;stroke-miterlimit:10;}
</style>
<g>
	<!--<circle class="st0" cx="30.5" cy="31.2" r="24"/>-->
	<path class="st1" d="M23.8,32.6V18.8c0-2.9,2.6-5.3,5.5-5.3c2.9,0,5.5,2.4,5.5,5.3v13.8h6V19.1c0-6.2-5.3-11.3-11.5-11.3
		c-6.2,0-11.5,5.1-11.5,11.3v13.5H23.8z"/>
	<path class="st2" d="M13.8,29.6v18c0,1.1,0.9,2,2,2h27c1.1,0,2-0.9,2-2v-18c0-1.1-0.9-2-2-2h-27C14.7,27.6,13.8,28.5,13.8,29.6z"/>
	<line class="st3" x1="17.8" y1="44.6" x2="17.8" y2="46.6"/>
	<line class="st3" x1="17.8" y1="30.6" x2="17.8" y2="42.6"/>
	<!--<path class="st4" d="M31.6,1L31.6,1c16.2,0.7,28.8,14.3,28.2,30.6c0,0.7-0.1,1.4-0.2,2"/>-->
	<!--<path class="st4" d="M18.6,3.4C8.6,7.8,1.5,17.6,1,29.2C0.8,34.5,2,39.6,4.4,44"/>-->
	<!--<path class="st4" d="M13,54.1c4.6,3.4,10.1,5.4,16.2,5.7c10.9,0.4,20.6-5.1,26-13.7"/>-->
	<path class="st1" d="M31.8,43.6V39c1.2-0.7,2-2,2-3.4c0-2.5-2.3-4.5-5-3.9c-1.4,0.3-2.6,1.5-2.9,2.9c-0.5,1.9,0.4,3.6,1.9,4.4v4.6
		c0,1.1,0.9,2,2,2l0,0C30.9,45.6,31.8,44.7,31.8,43.6z"/>
</g>
</svg>
