<?xml version="1.0" encoding="utf-8"?>
<!-- Generator: Adobe Illustrator 19.0.0, SVG Export Plug-In . SVG Version: 6.00 Build 0)  -->
<svg version="1.1" id="Layer_1" xmlns="http://www.w3.org/2000/svg" xmlns:xlink="http://www.w3.org/1999/xlink" x="0px" y="0px"
	 viewBox="0 0 63 57.8" style="enable-background:new 0 0 63 57.8;" xml:space="preserve">
<style type="text/css">
	.st0{fill:#E9EAEB;}
	.st1{fill:#FFFFFF;stroke:#2B5183;stroke-width:2;stroke-miterlimit:10;}
	.st2{fill:none;stroke:#2B5183;stroke-width:2;stroke-miterlimit:10;}
	.st3{fill:#A8D2F0;stroke:#2B5183;stroke-width:2;stroke-miterlimit:10;}
</style>
<g>
	<circle class="st0" cx="30.9" cy="30.8" r="27"/>
	<path class="st1" d="M20,13.5C20,6.6,25.6,1,32.5,1C39.4,1,45,6.6,45,13.5c0,5.8-3,10.9-9,12.5v24.5l-4.3,5H26v-5l2-2.7v-0.9
		l-2-2.7v-2.7l2-2.7v-0.9L26,35V24.8C23,22.6,20,18.2,20,13.5z"/>
	<polyline class="st2" points="4,18.5 10.9,18.5 15,24.5 17,24.5 	"/>
	<line class="st2" x1="4" y1="29.5" x2="12" y2="29.5"/>
	<circle class="st3" cx="4" cy="18.5" r="3"/>
	<polyline class="st2" points="4,40.5 10.9,40.5 14.9,34.5 17,34.5 	"/>
	<circle class="st3" cx="4" cy="40.5" r="3"/>
	<circle class="st3" cx="4" cy="29.5" r="3"/>
	<polyline class="st2" points="11.2,49.5 17.9,39.5 24,39.5 	"/>
	<circle class="st3" cx="11" cy="49.5" r="3"/>
	<polyline class="st2" points="59,18.5 52.1,18.5 48,24.5 45,24.5 	"/>
	<line class="st2" x1="59" y1="29.5" x2="51" y2="29.5"/>
	<circle class="st3" cx="59" cy="18.5" r="3"/>
	<polyline class="st2" points="59,40.5 52.1,40.5 48.1,34.5 46,34.5 	"/>
	<circle class="st3" cx="59" cy="40.5" r="3"/>
	<circle class="st3" cx="59" cy="29.5" r="3"/>
	<polyline class="st2" points="51.8,49.5 45.1,39.5 38,39.5 	"/>
	<circle class="st3" cx="52" cy="49.5" r="3"/>
	<line class="st2" x1="45" y1="29.5" x2="43" y2="29.5"/>
	<line class="st2" x1="49" y1="29.5" x2="47" y2="29.5"/>
	<line class="st2" x1="20" y1="29.5" x2="18" y2="29.5"/>
	<line class="st2" x1="16" y1="29.5" x2="14" y2="29.5"/>
	<line class="st2" x1="19" y1="24.5" x2="21" y2="24.5"/>
	<line class="st2" x1="44" y1="34.5" x2="42" y2="34.5"/>
	<line class="st2" x1="19" y1="34.5" x2="21" y2="34.5"/>
	<line class="st2" x1="32" y1="24.5" x2="32" y2="48.5"/>
	<circle class="st1" cx="32.5" cy="9" r="3.5"/>
	<line class="st2" x1="22" y1="29.5" x2="26" y2="29.5"/>
	<line class="st2" x1="36" y1="29.5" x2="41" y2="29.5"/>
	<line class="st2" x1="36" y1="34.5" x2="40" y2="34.5"/>
	<line class="st2" x1="23" y1="34.5" x2="25" y2="34.5"/>
</g>
</svg>
